<mxfile host="app.diagrams.net" modified="2024-01-18T11:22:31.910Z" agent="Mozilla/5.0 (Macintosh; Intel Mac OS X 10_15_7) AppleWebKit/537.36 (KHTML, like Gecko) Chrome/120.0.0.0 Safari/537.36" etag="4AqHLesEvFG6phWxl7U_" version="22.1.18" type="github">
  <diagram name="第 1 页" id="B3ZCoEloWPmJCRGsNZGH">
    <mxGraphModel dx="954" dy="615" grid="1" gridSize="10" guides="1" tooltips="1" connect="1" arrows="1" fold="1" page="1" pageScale="1" pageWidth="827" pageHeight="1169" math="0" shadow="0">
      <root>
        <mxCell id="0" />
        <mxCell id="1" parent="0" />
        <mxCell id="jG_Dv0XRbzAc5DnJbmlo-3" value="Pool" style="swimlane;childLayout=stackLayout;resizeParent=1;resizeParentMax=0;startSize=20;html=1;" vertex="1" parent="1">
          <mxGeometry x="70" y="310" width="630" height="490" as="geometry" />
        </mxCell>
        <mxCell id="jG_Dv0XRbzAc5DnJbmlo-4" value="产研" style="swimlane;startSize=20;html=1;" vertex="1" parent="jG_Dv0XRbzAc5DnJbmlo-3">
          <mxGeometry y="20" width="230" height="470" as="geometry" />
        </mxCell>
        <mxCell id="jG_Dv0XRbzAc5DnJbmlo-2" value="产研发起指定供应商流程" style="rounded=1;whiteSpace=wrap;html=1;absoluteArcSize=1;arcSize=14;strokeWidth=2;" vertex="1" parent="jG_Dv0XRbzAc5DnJbmlo-4">
          <mxGeometry x="40" y="60" width="100" height="100" as="geometry" />
        </mxCell>
        <mxCell id="jG_Dv0XRbzAc5DnJbmlo-5" value="采购" style="swimlane;startSize=20;html=1;" vertex="1" parent="jG_Dv0XRbzAc5DnJbmlo-3">
          <mxGeometry x="230" y="20" width="120" height="470" as="geometry" />
        </mxCell>
        <mxCell id="jG_Dv0XRbzAc5DnJbmlo-6" value="供应商" style="swimlane;startSize=20;html=1;" vertex="1" parent="jG_Dv0XRbzAc5DnJbmlo-3">
          <mxGeometry x="350" y="20" width="280" height="470" as="geometry" />
        </mxCell>
        <mxCell id="jG_Dv0XRbzAc5DnJbmlo-7" value="DPM" style="swimlane;startSize=20;html=1;" vertex="1" parent="1">
          <mxGeometry x="590" y="330" width="220" height="460" as="geometry" />
        </mxCell>
      </root>
    </mxGraphModel>
  </diagram>
</mxfile>
